<svg id="Layer_1" data-name="Layer 1" xmlns="http://www.w3.org/2000/svg" viewBox="0 0 34.75 30.43"><defs><style>.cls-1{fill:#dfe6e9;stroke:#dfe6e9;stroke-miterlimit:10;}</style></defs><path class="cls-1" d="M-47.54,8.75v7.47a1.08,1.08,0,0,0,.5,1q7.57,5.13,15.1,10.28c.17.11.33.23.49.35A.86.86,0,0,1-31.22,29a.83.83,0,0,1-1.14.28l-.08-.06-3.51-2.41-12-8.17a.62.62,0,0,0-.89,0c-3.61,2.62-7.23,5.21-10.85,7.81-1.23.89-2.45,1.79-3.7,2.67-.63.45-1.26.27-1.42-.4a.87.87,0,0,1,.43-1l3.55-2.58q5.59-4,11.2-8a.86.86,0,0,0,.37-.81V1c0-.6.34-1,.83-1a.89.89,0,0,1,.86,1C-47.53,3.6-47.54,6.18-47.54,8.75Z" transform="translate(65.33 0.51)"/></svg>