<svg xmlns="http://www.w3.org/2000/svg" fill="currentColor" viewBox="0 0 1385.17 1530.65">
  <g >
    <path d="M1312.27 1056.93V473.71h.14c-.01-19.43-5.25-38.2-14.73-54.59-9.5-16.43-23.13-30.35-39.9-40.04l-.06.11L747.39 87.58l-.14-.14c-8.18-4.73-17.04-8.37-26.32-10.85-9.1-2.44-18.63-3.69-28.35-3.69-9.71 0-19.24 1.25-28.33 3.69-9.46 2.53-18.37 6.17-26.48 10.86v.14L127.44 379.2l-.06-.11c-16.77 9.7-30.4 23.61-39.9 40.04-9.47 16.39-14.71 35.16-14.73 54.59h.14v583.22h-.14c.01 19.43 5.25 38.19 14.73 54.58 9.5 16.43 23.13 30.34 39.9 40.04l.06-.11 510.33 291.61.14.14c8.18 4.73 17.04 8.37 26.32 10.85 9.1 2.44 18.63 3.69 28.35 3.69 9.71 0 19.24-1.25 28.33-3.69 9.46-2.53 18.37-6.18 26.48-10.86v-.14l510.33-291.61.06.11c16.77-9.7 30.4-23.61 39.9-40.04 9.47-16.39 14.71-35.15 14.73-54.58h-.14zm72.76-583.22h.14v583.21l-.14.01c-.02 32.59-8.71 63.87-24.41 91.03-15.68 27.12-38.47 50.25-66.73 66.56v.14l-510.33 291.61-.06-.11c-14.02 8.08-28.75 14.2-43.79 18.23-15.42 4.13-31.26 6.25-47.13 6.25-15.87 0-31.72-2.12-47.14-6.25-15.18-4.06-29.92-10.16-43.81-18.16l-.03.04-510.33-291.61v-.14c-28.26-16.31-51.05-39.44-66.73-66.56C8.84 1120.8.15 1089.51.13 1056.93h-.14V473.71h.14c.02-32.59 8.71-63.88 24.41-91.04 15.67-27.12 38.47-50.25 66.73-66.56v-.14L601.6 24.36l.06.11c14.02-8.08 28.75-14.2 43.79-18.22C660.87 2.12 676.71 0 692.58 0c15.87 0 31.72 2.12 47.14 6.25 15.18 4.06 29.92 10.16 43.81 18.16l.03-.04 510.33 291.61v.14c28.26 16.31 51.05 39.44 66.73 66.56 15.7 27.16 24.39 58.45 24.41 91.04z" class="fil0"/>
    <path d="m691.1 723.18 1.49.86 618.22-357.61 36.45 62.94-654.67 378.7-1.49-.86z" />
    <path d="M656.13 1500.18V765.33h72.91v734.85z" />
    <path d="m18.23 1109.19 636.41-367.42 36.46 62.93-636.42 367.43z" />
    <path d="M656.13 771.31V36.45h72.91v734.86z" />
    <path d="M669.79 707.57V60.69c-6.76 2.33-13.19 5.23-19.21 8.81L116.3 371.76c-5.26 3.01-10.23 6.41-14.86 10.16l568.35 325.64zM628.06 770.79 61.67 446.27c-1.68 7.69-2.55 15.6-2.4 23.61l-.16 604.72c.01 6.92.67 13.76 1.92 20.45l567.03-324.27z" class="fil1"/>
  </g>
</svg>