<svg xmlns="http://www.w3.org/2000/svg" fill="currentColor" viewBox="0 0 1385.14 1530.62">
  <g>
    <path d="M1312.24 1056.91V473.7h.14c-.01-19.43-5.25-38.2-14.73-54.58-9.5-16.43-23.13-30.34-39.9-40.04l-.06.11-510.32-291.6-.14-.14c-8.18-4.73-17.04-8.37-26.32-10.85-9.1-2.44-18.63-3.69-28.35-3.69-9.71 0-19.24 1.25-28.33 3.69-9.46 2.53-18.37 6.17-26.48 10.86v.14L127.43 379.2l-.06-.11c-16.77 9.7-30.4 23.61-39.9 40.04-9.47 16.39-14.71 35.16-14.73 54.59h.14v583.21h-.14c.01 19.43 5.25 38.19 14.73 54.58 9.5 16.43 23.13 30.34 39.9 40.04l.06-.11 510.32 291.6.14.14c8.18 4.73 17.04 8.37 26.32 10.85 9.1 2.44 18.63 3.69 28.35 3.69 9.71 0 19.24-1.25 28.33-3.69 9.46-2.53 18.37-6.18 26.48-10.86v-.14l510.32-291.6.06.11c16.77-9.7 30.4-23.61 39.9-40.04 9.47-16.39 14.71-35.15 14.73-54.58h-.14zM1385 473.7h.14v583.2l-.14.01c-.02 32.58-8.71 63.87-24.41 91.03-15.67 27.12-38.47 50.25-66.73 66.56v.14l-510.32 291.6-.06-.11c-14.02 8.08-28.75 14.2-43.79 18.22-15.42 4.13-31.26 6.25-47.13 6.25-15.86 0-31.72-2.12-47.14-6.25-15.18-4.07-29.92-10.16-43.81-18.16l-.03.04-510.32-291.6v-.14c-28.26-16.31-51.05-39.44-66.73-66.56C8.83 1120.77.14 1089.48.12 1056.9h-.14V473.69h.14c.02-32.59 8.71-63.88 24.41-91.04C40.2 355.53 63 332.4 91.26 316.09v-.14l510.32-291.6.06.11c14.02-8.08 28.75-14.2 43.79-18.22 15.42-4.13 31.26-6.25 47.13-6.25 15.86 0 31.72 2.12 47.14 6.25 15.18 4.06 29.92 10.16 43.81 18.16l.03-.05 510.32 291.6v.14c28.26 16.31 51.05 39.44 66.73 66.56 15.7 27.16 24.39 58.45 24.41 91.03z" />
    <path d="m74.36 366.42 618.21 357.61 618.21-357.61 36.45 62.94-654.66 378.69L37.91 429.36z" />
    <path d="M1330.47 1172.1 694.06 804.68l36.45-62.93 636.41 367.42zM18.23 1109.17l636.4-367.42 36.45 62.93-636.4 367.42z" />
    <path d="M637.77 1443.03zm18.35-618.16-545.34 314.85c5.11 4.41 10.66 8.38 16.67 11.71l510.45 291.75c5.76 3.33 11.87 6.12 18.22 8.34V824.86zM729.02 824.86v626.67c6.47-2.25 12.61-5.05 18.36-8.51l510.37-291.49c5.95-3.44 11.49-7.4 16.6-11.83L729.01 824.86z" />
  </g>
</svg>