<svg xmlns="http://www.w3.org/2000/svg" fill="currentColor" width="682.667" height="682.667" version="1.0" viewBox="0 0 512 512">
  <path d="M260.5 1.3c-6.8 2.3-10.1 4.4-14.8 9.7-5.8 6.5-7.9 12.6-7.6 22.5l.2 7.6-6 6.7c-42.8 47.9-41.3 46-41.3 50.7 0 3.6.5 4.8 3.1 6.9 4 3.4 9.6 3.5 13 .3 1.3-1.2 11.1-12 21.8-24 10.7-12 19.8-21.4 20.2-21 1 1.2 123 212.6 123.2 213.7.2.8-213.4 46-213.8 45.3-2.8-4-54.8-95.3-54.9-96.3 0-.7 10-12.6 22.4-26.4 12.4-13.9 23.1-26.6 23.8-28.2 1-2.3 1-3.8.2-6.4-1.5-4.4-4.5-6.4-9.6-6.4-4.8 0-4.7-.1-36.2 35.2L84 213.8l-26.6 15.4c-20 11.5-28.3 16.9-33.5 21.6-31.6 29.2-31.8 77.4-.5 106.9 12.3 11.6 24.8 17.4 41.7 19.6 10.6 1.3 22.3 0 32.7-3.8 3.6-1.3 6.7-2.3 6.9-2.2.1.2 3.2 5.4 6.8 11.7 7.7 13.3 11.1 17.2 18 20.7 6 3.1 15.8 3.6 21.7 1l3.8-1.6 3.9 6.7c2.2 3.7 15.3 26.3 29.1 50.2 13.8 23.9 26.3 44.7 27.7 46.2 1.5 1.5 4.6 3.5 7 4.4 7.6 2.9 11.2 1.7 34.6-11.7 11.7-6.7 22.3-13.1 23.6-14.3 3.4-3 6.1-9.4 6.1-14.4 0-7.7-4.5-13.9-15.2-20.7-4.4-2.7-6.1-5.4-27.4-42.5-12.5-21.7-22.9-39.9-23.2-40.3-.2-.4 1.8-3.2 4.6-6 8.2-8.8 10.4-20.9 5.6-30.9-1-2.1-1.6-3.9-1.3-4.1.2-.2 35-7.6 77.4-16.4l76.9-16 4.4 3.4c15.1 11.5 38.2 6.1 46.9-11.1 3.1-6.1 4.2-17.2 2.3-23.2-2.3-7.1-142.1-248.5-146.5-252.9-2.2-2.2-6.2-5.1-9-6.4-6-2.9-16.2-3.7-22-1.8zm14.4 20.3c3.4 2-4.5-11.4 75.9 128 51.6 89.3 68.2 118.9 68.2 121.3 0 9.4-9.7 15.1-17.5 10.2-2.3-1.4-16.8-25.7-63.5-106.7-86.8-150.3-80-138.2-80-142.7 0-4.9 1.3-7.3 5.3-9.7 3.9-2.4 8-2.5 11.6-.4zM113.7 282c23.3 40.4 26 45.5 24.5 46.5-4.7 3.2-38.3 22.1-43.7 24.6-19.2 9-43 4.5-58.6-11-11.2-11.2-16.9-26.3-15.6-41.4 1.3-14.5 8.2-28.1 18.8-36.6 6.2-5 45.9-28.2 47.4-27.7.6.1 12.8 20.7 27.2 45.6zm97.8 53c3 5.8 3.1 8 .8 10.9-1 1.2-16.6 10.7-34.8 21.2-34.1 19.8-37.5 21.3-41.2 17.6-2.6-2.6-14.2-23.1-13.5-23.9.4-.3 8.3-5 17.5-10.3l16.8-9.7 24.7-5.3c13.6-2.9 25.3-5.3 25.9-5.4.7-.1 2.4 2.1 3.8 4.9zm15.9 82.5c13.1 22.8 25.1 42.5 26.6 43.8 1.5 1.3 4.8 3.7 7.4 5.3 2.5 1.6 4.5 3.2 4.3 3.7-.2.7-36 21.7-36.4 21.3-.8-.7-56.3-97.7-56.3-98.3.1-.9 27.9-17.1 29.5-17.2.6 0 11.7 18.6 24.9 41.4zM407.1 14.7c-1.7 1.6-10 15-18.6 29.9-13 22.8-15.5 27.7-15.5 31.1 0 8.3 9.8 12.3 15.8 6.5 1.6-1.5 10-14.9 18.6-29.9 17.4-30.4 18-32.1 12.7-37.4-4-3.9-8.9-4-13-.2zM495.4 50.4c-3.7 3.7-4.3 7-2 11.5 1.5 2.8 5.3 5.1 8.6 5.1 5.1 0 10-4.9 10-10 0-3.1-2.9-7.6-5.7-8.9-4.2-1.9-7.3-1.3-10.9 2.3zM433.9 84.8c-30.4 17.5-34.6 20.3-36.2 23.4-2.1 4.4-1.5 7.7 2.1 11.3 4.9 4.9 7.2 4 44.3-17.4C478.2 82.5 481 80.4 481 75c0-5.1-5.1-10-10.3-10-1.3 0-17.8 8.9-36.8 19.8z"/>
  <path d="M163.9 124.9c-2.2 2.3-2.9 3.9-2.9 6.9 0 10.9 13.5 13.8 18.3 4 1.6-3.3 1.6-4 .4-7.1-3-7.1-10.6-9-15.8-3.8zM426.3 144.4c-2.3 2-2.8 3.2-2.8 6.9 0 5.4 2.2 8.2 7.4 9.7 5.2 1.4 49.7 1.2 54.1-.3 4.9-1.7 7.6-7.2 6-12.2-2.1-6.5-2.3-6.5-33.7-6.5h-28.2l-2.8 2.4z"/>
</svg>
