<svg height="128" width="128" viewBox="0 0 29 29">
<path
    fill="#FFFFFF"
    d="M0,0 h29v29H0z"
    shapeRendering="crispEdges"
></path>
<path
    fill="#000000"
    d="M0 0h7v1H0zM10 0h1v1H10zM12 0h2v1H12zM19 0h2v1H19zM22,0 h7v1H22zM0 1h1v1H0zM6 1h1v1H6zM11 1h5v1H11zM17 1h1v1H17zM20 1h1v1H20zM22 1h1v1H22zM28,1 h1v1H28zM0 2h1v1H0zM2 2h3v1H2zM6 2h1v1H6zM8 2h1v1H8zM10 2h1v1H10zM12 2h1v1H12zM16 2h1v1H16zM20 2h1v1H20zM22 2h1v1H22zM24 2h3v1H24zM28,2 h1v1H28zM0 3h1v1H0zM2 3h3v1H2zM6 3h1v1H6zM8 3h2v1H8zM11 3h1v1H11zM13 3h2v1H13zM17 3h2v1H17zM22 3h1v1H22zM24 3h3v1H24zM28,3 h1v1H28zM0 4h1v1H0zM2 4h3v1H2zM6 4h1v1H6zM8 4h1v1H8zM10 4h1v1H10zM16 4h5v1H16zM22 4h1v1H22zM24 4h3v1H24zM28,4 h1v1H28zM0 5h1v1H0zM6 5h1v1H6zM8 5h3v1H8zM13 5h1v1H13zM15 5h1v1H15zM22 5h1v1H22zM28,5 h1v1H28zM0 6h7v1H0zM8 6h1v1H8zM10 6h1v1H10zM12 6h1v1H12zM14 6h1v1H14zM16 6h1v1H16zM18 6h1v1H18zM20 6h1v1H20zM22,6 h7v1H22zM8 7h1v1H8zM11 7h2v1H11zM14 7h1v1H14zM19 7h2v1H19zM0 8h1v1H0zM2 8h5v1H2zM10 8h2v1H10zM13 8h5v1H13zM19 8h1v1H19zM22 8h5v1H22zM2 9h1v1H2zM4 9h2v1H4zM10 9h1v1H10zM12 9h2v1H12zM16 9h1v1H16zM18 9h7v1H18zM28,9 h1v1H28zM0 10h5v1H0zM6 10h6v1H6zM15 10h2v1H15zM20 10h1v1H20zM23 10h1v1H23zM2 11h1v1H2zM4 11h2v1H4zM7 11h2v1H7zM10 11h2v1H10zM15 11h2v1H15zM18 11h1v1H18zM20 11h1v1H20zM24 11h2v1H24zM27 11h1v1H27zM0 12h3v1H0zM5 12h4v1H5zM10 12h4v1H10zM15 12h1v1H15zM17 12h1v1H17zM19 12h1v1H19zM25 12h2v1H25zM0 13h4v1H0zM7 13h1v1H7zM10 13h4v1H10zM16 13h1v1H16zM18 13h2v1H18zM22 13h3v1H22zM28,13 h1v1H28zM0 14h2v1H0zM3 14h4v1H3zM8 14h2v1H8zM13 14h4v1H13zM20 14h2v1H20zM23 14h4v1H23zM0 15h3v1H0zM5 15h1v1H5zM7 15h1v1H7zM9 15h1v1H9zM11 15h1v1H11zM14 15h1v1H14zM20 15h3v1H20zM24 15h1v1H24zM27 15h1v1H27zM1 16h1v1H1zM6 16h1v1H6zM10 16h3v1H10zM15 16h1v1H15zM17 16h1v1H17zM21 16h1v1H21zM25 16h2v1H25zM0 17h3v1H0zM10 17h4v1H10zM16 17h1v1H16zM19 17h6v1H19zM26 17h1v1H26zM28,17 h1v1H28zM0 18h1v1H0zM4 18h1v1H4zM6 18h6v1H6zM13 18h3v1H13zM17 18h1v1H17zM22 18h1v1H22zM26 18h1v1H26zM0 19h1v1H0zM3 19h2v1H3zM7 19h2v1H7zM10 19h1v1H10zM13 19h1v1H13zM16 19h1v1H16zM18 19h2v1H18zM24 19h1v1H24zM27 19h1v1H27zM0 20h1v1H0zM3 20h2v1H3zM6 20h1v1H6zM8 20h1v1H8zM11 20h2v1H11zM14 20h1v1H14zM17 20h2v1H17zM20 20h5v1H20zM26,20 h3v1H26zM8 21h1v1H8zM12 21h1v1H12zM17 21h4v1H17zM24,21 h5v1H24zM0 22h7v1H0zM10 22h1v1H10zM15 22h1v1H15zM17 22h1v1H17zM19 22h2v1H19zM22 22h1v1H22zM24 22h3v1H24zM0 23h1v1H0zM6 23h1v1H6zM8 23h1v1H8zM11 23h1v1H11zM14 23h1v1H14zM18 23h3v1H18zM24 23h1v1H24zM27 23h1v1H27zM0 24h1v1H0zM2 24h3v1H2zM6 24h1v1H6zM8 24h2v1H8zM11 24h1v1H11zM15 24h1v1H15zM17 24h1v1H17zM20 24h5v1H20zM26,24 h3v1H26zM0 25h1v1H0zM2 25h3v1H2zM6 25h1v1H6zM8 25h1v1H8zM10 25h5v1H10zM16 25h1v1H16zM19 25h2v1H19zM23 25h1v1H23zM25,25 h4v1H25zM0 26h1v1H0zM2 26h3v1H2zM6 26h1v1H6zM8 26h3v1H8zM12 26h1v1H12zM15 26h3v1H15zM19 26h9v1H19zM0 27h1v1H0zM6 27h1v1H6zM9 27h2v1H9zM13 27h1v1H13zM15 27h2v1H15zM20 27h2v1H20zM24 27h2v1H24zM27 27h1v1H27zM0 28h7v1H0zM8 28h2v1H8zM11 28h2v1H11zM15 28h1v1H15zM17 28h1v1H17zM19 28h1v1H19zM22 28h5v1H22z"
    shapeRendering="crispEdges"
></path>
</svg>