<svg xmlns="http://www.w3.org/2000/svg" fill="currentColor" viewBox="0 0 1385.17 1530.65">
  <path fill-rule="evenodd" d="M1312.27 1056.93V473.71h.14c-.01-19.43-5.25-38.2-14.73-54.59-9.5-16.43-23.13-30.35-39.9-40.04l-.06.11L747.39 87.58l-.14-.14c-8.18-4.73-17.04-8.37-26.32-10.85-9.1-2.44-18.63-3.69-28.35-3.69-9.71 0-19.24 1.25-28.33 3.69-9.46 2.53-18.37 6.17-26.48 10.86v.14L127.44 379.2l-.06-.11c-16.77 9.7-30.4 23.61-39.9 40.04-9.47 16.39-14.71 35.16-14.73 54.59h.14v583.22h-.14c.01 19.43 5.25 38.19 14.73 54.58 9.5 16.43 23.13 30.34 39.9 40.04l.06-.11 510.33 291.61.14.14c8.18 4.73 17.04 8.37 26.32 10.85 9.1 2.44 18.63 3.69 28.35 3.69 9.71 0 19.24-1.25 28.33-3.69 9.46-2.53 18.37-6.18 26.48-10.86v-.14l510.33-291.61.06.11c16.77-9.7 30.4-23.61 39.9-40.04 9.47-16.39 14.71-35.15 14.73-54.58h-.14zm72.76-583.22h.14v583.21l-.14.01c-.02 32.59-8.71 63.87-24.41 91.03-15.68 27.12-38.47 50.25-66.73 66.56v.14l-510.33 291.61-.06-.11c-14.02 8.08-28.75 14.2-43.79 18.22-15.42 4.13-31.26 6.25-47.13 6.25-15.87 0-31.72-2.12-47.14-6.25-15.18-4.07-29.92-10.16-43.81-18.16l-.03.04-510.33-291.61v-.14c-28.26-16.31-51.05-39.44-66.73-66.56C8.84 1120.79.15 1089.5.13 1056.92h-.14V473.7h.14c.02-32.59 8.71-63.88 24.41-91.04 15.67-27.12 38.47-50.25 66.73-66.56v-.14L601.6 24.35l.06.11c14.02-8.08 28.75-14.2 43.79-18.22 15.42-4.13 31.26-6.25 47.13-6.25 15.87 0 31.72 2.12 47.14 6.25 15.18 4.06 29.92 10.16 43.81 18.16l.03-.04 510.33 291.61v.14c28.26 16.31 51.05 39.44 66.73 66.56 15.7 27.16 24.39 58.45 24.41 91.04z" clip-rule="evenodd"/>
  <path fill-rule="evenodd" d="m74.36 366.43 618.23 357.61v84.03L37.91 429.37z" clip-rule="evenodd"/>
  <path fill-rule="evenodd" d="M656.13 1500.18V765.33h72.91v734.85z" clip-rule="evenodd"/>
  <path fill-rule="evenodd" d="M1330.5 1172.13 694.08 804.7l36.45-62.93 636.42 367.42z" clip-rule="evenodd"/>
  <path fill-rule="evenodd" d="M656.13 771.31V36.45h72.91v734.86z" clip-rule="evenodd"/>
  <path d="M747.4 87.58zm-18.36-8.48v623.86l542.94-314.07c-4.44-3.62-9.17-6.9-14.26-9.7L747.26 87.43a108.03 108.03 0 0 0-18.22-8.34zM1309.98 450.94 768.9 763.93l541.7 312.73c1.2-6.44 1.82-13.04 1.68-19.72l.14-583.22c0-7.73-.83-15.37-2.43-22.77z"/>
</svg>