<svg xmlns="http://www.w3.org/2000/svg" fill="currentColor" viewBox="0 0 1385.14 1530.61">
  <g>
    <path d="M1312.24 1056.91v-583.2h.14c-.01-19.43-5.25-38.2-14.73-54.59-9.5-16.43-23.13-30.34-39.9-40.04l-.06.11-510.32-291.6-.14-.14c-8.18-4.73-17.04-8.37-26.32-10.85-9.1-2.44-18.63-3.69-28.35-3.69-9.71 0-19.24 1.25-28.33 3.69-9.46 2.53-18.37 6.18-26.48 10.86v.14L127.43 379.2l-.06-.11c-16.77 9.69-30.4 23.61-39.9 40.04-9.47 16.39-14.71 35.16-14.73 54.59h.14v583.2h-.14c.01 19.43 5.25 38.19 14.73 54.58 9.5 16.43 23.13 30.34 39.9 40.04l.06-.11 510.32 291.6.14.14c8.18 4.73 17.04 8.37 26.32 10.85 9.1 2.44 18.63 3.69 28.35 3.69 9.71 0 19.24-1.25 28.33-3.69 9.46-2.53 18.37-6.17 26.48-10.86v-.14l510.32-291.6.06.11c16.77-9.69 30.4-23.61 39.9-40.04 9.47-16.39 14.71-35.15 14.73-54.58h-.14zm72.76-583.2h.14v583.2l-.14.01c-.02 32.58-8.71 63.87-24.41 91.03-15.67 27.12-38.47 50.25-66.73 66.56v.14l-510.32 291.6-.06-.11c-14.02 8.08-28.75 14.2-43.79 18.22-15.42 4.13-31.26 6.25-47.13 6.25-15.86 0-31.72-2.12-47.14-6.25-15.18-4.07-29.92-10.16-43.81-18.16l-.03.05-510.32-291.6v-.14c-28.26-16.31-51.05-39.44-66.73-66.56C8.83 1120.79.14 1089.5.12 1056.92h-.14v-583.2h.14c.02-32.59 8.71-63.88 24.41-91.04C40.2 355.56 63 332.43 91.26 316.12v-.14l510.32-291.6.06.11c14.02-8.08 28.75-14.2 43.79-18.22C660.85 2.14 676.69.02 692.56.02c15.87 0 31.72 2.12 47.14 6.25 15.18 4.07 29.92 10.16 43.81 18.16l.03-.04 510.32 291.6v.14c28.26 16.31 51.05 39.44 66.73 66.56 15.7 27.16 24.39 58.45 24.41 91.04z" />
    <path d="m74.36 366.42 618.21 357.61 618.21-357.61 36.45 62.94-654.66 378.69L37.91 429.36z" />
    <path d="M656.12 1500.15V765.31h72.9v734.84z" />
    <path d="M747.39 87.58zm-54.81 636.45 579.37-335.15c-4.44-3.6-9.17-6.88-14.26-9.69L747.24 87.46c-8.19-4.74-17.05-8.37-26.33-10.87-9.08-2.42-18.62-3.68-28.33-3.68-9.72 0-19.25 1.26-28.33 3.68-9.47 2.54-18.38 6.18-26.48 11L127.4 379.1c-5.02 2.9-9.76 6.18-14.18 9.79l579.37 335.15z" />
    <path d="m692.58 710.8 557.73-322.63L740.89 97a96.629 96.629 0 0 0-10.68-5.22c-3.84-1.59-7.98-2.98-12.25-4.13l-.39-.12c-4-1.03-8.06-1.83-12.13-2.37l-.34-.05c-3.93-.48-8.13-.74-12.52-.74-4.53 0-8.84.27-12.86.78-4.19.56-8.39 1.41-12.52 2.48-4.29 1.16-8.47 2.58-12.43 4.22l-.62.23a86.385 86.385 0 0 0-10.55 5.35L134.71 388.08l557.87 322.71zm585.11-312.03L698.35 733.91c-3.44 1.99-7.82 2.15-11.5.01L107.48 398.77c-1.17-.68-2.24-1.58-3.14-2.68-3.98-4.89-3.24-12.11 1.65-16.1 5.7-4.31 9.59-6.99 15.67-10.81L631.94 77.71c4.2-2.49 8.68-4.74 13.42-6.73l.62-.29c4.95-2.06 10.09-3.8 15.32-5.19 5.01-1.32 10.19-2.34 15.46-3.03 5.41-.69 10.7-1.05 15.82-1.05 5.01 0 10.18.35 15.43 1.02l.39.04c5.11.66 10.14 1.65 14.97 2.91l.49.12c5.01 1.34 10.07 3.07 15.03 5.11 4.63 1.91 9.12 4.1 13.39 6.53l511.1 292.07c2.89 1.64 5.62 3.33 8.13 5.05l7.38 5.5c1.16.88 2.17 2 2.95 3.36 3.16 5.47 1.3 12.48-4.16 15.64z" />
  </g>
</svg>